<?xml version='1.0' encoding='iso-8859-1'?>
<svg version="1.1" xmlns="http://www.w3.org/2000/svg" viewBox="0 0 511 511" xmlns:xlink="http://www.w3.org/1999/xlink" enable-background="new 0 0 511 511">
  <g>
    <path d="m485.729,236.892c-0.21-0.313-0.437-0.618-0.699-0.904l-.718-.783c-1.699-1.99-3.467-3.92-5.3-5.786l-96.189-105.006c-0.201-0.253-0.42-0.497-0.659-0.728-9.578-9.302-21.964-14.748-35.186-15.565-5.499-9.814-15.961-16.12-27.478-16.12-17.369,0-31.5,14.131-31.5,31.5v40 8 24.5h-65v-24.5-8-40c0-17.369-14.131-31.5-31.5-31.5-11.514,0-21.98,6.307-27.481,16.12-13.221,0.817-25.607,6.263-35.185,15.565-0.237,0.23-0.456,0.472-0.655,0.725l-96.192,105.009c-1.833,1.866-3.601,3.795-5.3,5.786l-.718,.783c-0.262,0.286-0.489,0.591-0.699,0.904-15.783,19.241-25.27,43.837-25.27,70.608 0,61.481 50.019,111.5 111.5,111.5s111.5-50.019 111.5-111.5c0-2.859-0.109-5.694-0.322-8.5h65.643c-0.213,2.806-0.322,5.641-0.322,8.5 0,61.481 50.019,111.5 111.5,111.5s111.501-50.019 111.501-111.5c0-26.771-9.487-51.367-25.271-70.608zm-182.729-113.392c0-9.098 7.402-16.5 16.5-16.5 3.445,0 6.709,1.079 9.415,2.958-10.059,2.743-18.985,8.249-25.915,15.651v-2.109zm-95,0v2.11c-6.93-7.403-15.856-12.908-25.915-15.651 2.706-1.879 5.97-2.958 9.415-2.958 9.098-0.001 16.5,7.401 16.5,16.499zm-96.5,280.5c-53.21,0-96.5-43.29-96.5-96.5 0-23.702 8.594-45.431 22.823-62.246l5.227-5.706c17.494-17.62 41.719-28.548 68.45-28.548 53.21,0 96.5,43.29 96.5,96.5s-43.29,96.5-96.5,96.5zm0-208c-11.548,0-22.691,1.765-33.174,5.039l61.278-66.894c0.012-0.013 0.024-0.026 0.036-0.039 7.554-7.166 17.428-11.106 27.86-11.106 22.332,0 40.5,18.168 40.5,40.5v8 24.5h-16.5c-0.172,0-0.342,0.006-0.511,0.017-2.181-0.209-4.427,0.533-6.077,2.218-2.898,2.959-2.849,7.708 0.111,10.606 11.432,11.196 18.88,25.313 21.697,40.7-19.601-32.082-54.951-53.541-95.22-53.541zm176.5,88h-65v-20.5c0-19.088-5.781-37.238-16.524-52.5h98.048c-10.743,15.262-16.524,33.411-16.524,52.5v20.5zm37.977-75.159c2.191-2.146 2.855-5.409 1.677-8.241-1.178-2.831-3.958-4.642-7.028-4.617l-1.176,.017h-16.45v-24.5-8c0-22.332 18.168-40.5 40.5-40.5 10.432,0 20.306,3.94 27.86,11.105 0.012,0.013 0.024,0.026 0.036,0.039l61.278,66.894c-10.483-3.273-21.626-5.038-33.174-5.038-40.269,0-75.619,21.459-95.219,53.542 2.816-15.387 10.265-29.505 21.696-40.701zm73.523,195.159c-53.21,0-96.5-43.29-96.5-96.5s43.29-96.5 96.5-96.5c26.731,0 50.956,10.928 68.449,28.547l5.227,5.706c14.23,16.816 22.824,38.545 22.824,62.247 0,53.21-43.29,96.5-96.5,96.5z"/>
    <path d="m111.5,228c-43.836,0-79.5,35.664-79.5,79.5s35.664,79.5 79.5,79.5 79.5-35.664 79.5-79.5-35.664-79.5-79.5-79.5zm0,144c-35.565,0-64.5-28.935-64.5-64.5s28.935-64.5 64.5-64.5 64.5,28.935 64.5,64.5-28.935,64.5-64.5,64.5z"/>
    <path d="m399.5,228c-43.836,0-79.5,35.664-79.5,79.5s35.664,79.5 79.5,79.5 79.5-35.664 79.5-79.5-35.664-79.5-79.5-79.5zm0,144c-35.565,0-64.5-28.935-64.5-64.5s28.935-64.5 64.5-64.5 64.5,28.935 64.5,64.5-28.935,64.5-64.5,64.5z"/>
    <path d="m399.5,260c-4.142,0-7.5,3.358-7.5,7.5s3.358,7.5 7.5,7.5c17.92,0 32.5,14.58 32.5,32.5 0,4.142 3.358,7.5 7.5,7.5s7.5-3.358 7.5-7.5c0-26.191-21.309-47.5-47.5-47.5z"/>
    <path d="m111.5,260c-4.142,0-7.5,3.358-7.5,7.5s3.358,7.5 7.5,7.5c17.92,0 32.5,14.58 32.5,32.5 0,4.142 3.358,7.5 7.5,7.5s7.5-3.358 7.5-7.5c0-26.191-21.309-47.5-47.5-47.5z"/>
  </g>
</svg>
